<?xml version="1.0" encoding="UTF-8"?>
<svg id="Layer_2" data-name="Layer 2" xmlns="http://www.w3.org/2000/svg" viewBox="0 0 84 84.04">
  <defs>
    <style>
      .cls-1 {
        fill: #fff;
        stroke-width: 0px;
      }
    </style>
  </defs>
  <g id="Layer_1-2" data-name="Layer 1">
    <g>
      <path class="cls-1" d="m0,44.67c0-1.75,0-3.5,0-5.25.05-.27.11-.53.15-.8.31-1.99.46-4.03.94-5.98C4.27,19.66,11.89,10.14,23.85,4.21,31.76.28,40.2-.86,48.9.63c10.9,1.86,19.78,7.23,26.48,16.01,7.01,9.19,9.71,19.63,8.22,31.08-1.1,8.44-4.57,15.86-10.24,22.2-6.46,7.23-14.49,11.74-24.05,13.47-1.55.28-3.13.44-4.69.65h-5.25c-1.02-.13-2.05-.24-3.07-.38-8.36-1.2-15.74-4.54-22.06-10.15-7.29-6.48-11.85-14.53-13.59-24.14-.28-1.55-.44-3.13-.65-4.69Zm41.94,16.46c7.13,0,14.27,0,21.4,0,3.55,0,5.72-2.18,5.72-5.72,0-8.91,0-17.82,0-26.73,0-3.54-2.17-5.71-5.73-5.71-14.21,0-28.43,0-42.64,0-3.6,0-5.76,2.16-5.76,5.76,0,8.86.06,17.71-.03,26.57-.03,3.22,2.24,5.93,5.89,5.87,7.05-.11,14.1-.03,21.16-.03Z"/>
      <path class="cls-1" d="m19.28,29.49c2.58,2.05,4.98,3.95,7.37,5.85,4.58,3.64,9.16,7.27,13.74,10.91,1.16.92,2.06.92,3.25-.02,6.62-5.25,13.23-10.5,19.84-15.75.36-.28.71-.56,1.24-.97v1.06c0,8.2,0,16.4,0,24.6,0,1.46-.18,1.63-1.67,1.63-14.05,0-28.1,0-42.16,0-1.42,0-1.61-.19-1.61-1.6,0-8.23,0-16.46,0-24.68,0-.27,0-.54,0-1.02Z"/>
      <path class="cls-1" d="m60.45,27.33c-1.53,1.22-2.91,2.31-4.29,3.41-4.52,3.59-9.04,7.17-13.54,10.76-.42.33-.69.44-1.17.05-5.79-4.62-11.59-9.22-17.4-13.82-.12-.1-.27-.16-.29-.4h36.69Z"/>
    </g>
  </g>
</svg>