<?xml version="1.0" encoding="UTF-8"?>
<svg id="Layer_2" data-name="Layer 2" xmlns="http://www.w3.org/2000/svg" viewBox="0 0 95.07 91.21">
  <defs>
    <style>
      .cls-1 {
        fill: #84754e;
        stroke-width: 0px;
      }
    </style>
  </defs>
  <g id="Layer_1-2" data-name="Layer 1">
    <path class="cls-1" d="m48.16,11.29l9.65,20.96,1.1,2.39,2.59.45,22.73,3.93-16.95,15.65-1.93,1.78.37,2.6,3.29,22.84-20.13-11.28-2.29-1.29-2.36,1.16-20.7,10.18,4.51-22.63.51-2.58-1.83-1.88-16.08-16.54,22.91-2.7,2.61-.31,1.23-2.33,10.76-20.41m.3-11.29l-15.49,29.37L0,33.26l23.14,23.81-6.49,32.56,29.79-14.65,28.96,16.24-4.73-32.86,24.39-22.53-32.72-5.66L48.46,0h0Z"/>
  </g>
</svg>