<?xml version="1.0" encoding="UTF-8"?>
<svg id="Layer_2" data-name="Layer 2" xmlns="http://www.w3.org/2000/svg" viewBox="0 0 84 84.01">
  <defs>
    <style>
      .cls-1 {
        fill: #fff;
        stroke-width: 0px;
      }
    </style>
  </defs>
  <g id="Layer_1-2" data-name="Layer 1">
    <path class="cls-1" d="m0,44.47c0-1.64,0-3.28,0-4.92.05-.29.11-.58.15-.87.2-1.51.32-3.04.61-4.54,1.77-9.18,6.13-16.94,13.03-23.23C19.8,5.44,26.84,2.01,34.85.64c1.56-.26,3.13-.43,4.7-.64,1.64,0,3.28,0,4.92,0,1.08.13,2.17.23,3.24.39,9.84,1.44,18.28,5.68,25.01,13.02,8.88,9.69,12.55,21.18,10.88,34.21-1.26,9.89-5.62,18.36-12.99,25.1-10.38,9.49-22.63,12.98-36.47,10.53-9.21-1.64-16.95-6.11-23.24-13.02-5.47-6.01-8.9-13.04-10.27-21.07C.38,47.61.21,46.04,0,44.47Zm53.11,19.48c1.85.01,3.54-.33,5.16-1.07,2.02-.92,3.48-2.52,5.01-4.04,1.14-1.13,1.14-2.03,0-3.16-2.41-2.42-4.82-4.84-7.24-7.26-1.12-1.12-2.04-1.11-3.17.02-1.33,1.34-2.64,2.7-3.98,4.03-1.56,1.55-3.47,1.68-5.27.4-4.71-3.36-8.8-7.36-12.26-12-1.48-1.98-1.36-3.82.38-5.57,1.37-1.38,2.75-2.74,4.11-4.12.99-1,1-1.94.02-2.93-2.48-2.51-4.98-5-7.48-7.48-.96-.95-1.9-.95-2.87-.02-.81.77-1.6,1.57-2.37,2.38-2.51,2.65-3.66,5.78-3.16,9.44.36,2.61,1.44,4.98,2.66,7.27,5.11,9.61,12.55,16.86,22.33,21.64,2.57,1.26,5.27,2.27,8.11,2.47Z"/>
  </g>
</svg>